<svg xmlns="http://www.w3.org/2000/svg" height="186.664" width="261.823"><path d="M115.23 136.057c-26.236 0-52.471.055-78.706-.017-20.092-.056-35.36-14.537-35.6-33.585a34.057 34.057 0 0112.685-27.26c11.85-11.139 27.574-8.233 29.107-9.458s2.032-12.244 11.4-20.28a36.686 36.686 0 0114.249-10.543c22.31-9.437 30.962-.543 32.723-1.309s7.039-20.069 24.531-26.887a44.093 44.093 0 0129.77-5.034c20.752 3.773 35.537 19.611 38.086 41.862.807 7.048 3.382 9.965 10.525 11.3 20.865 3.9 34.7 22.973 32.828 43.885a41.218 41.218 0 01-40.484 37.212c-27.034.316-54.075.077-81.113.077z" fill="#d8e9f7" stroke="#3e4147" stroke-linecap="round" stroke-linejoin="round" stroke-width="1.837"/><path d="M260.904 107.94a77.8 77.8 0 11-77.8-77.806 77.805 77.805 0 0177.8 77.806zm-77.8-20.417a20.417 20.417 0 1020.417 20.417 20.417 20.417 0 00-20.422-20.417z" fill="#fdbe2a" stroke="#3e4147" stroke-linecap="round" stroke-linejoin="round" stroke-width="1.837"/><path d="M115.43 146.323c14.525-10 33.7-22.843 48.129-32.455a20.423 20.423 0 0018.989 14.475c-7.469 14.318-18.131 35.325-26.644 52.506a78.046 78.046 0 01-40.474-34.526zm89.552-113.047c-4.677 15.966-12.32 40.384-16.888 54.865a20.441 20.441 0 0114.964 15.5c11.9-8.476 31.073-22.163 47.726-34.053a77.964 77.964 0 00-45.802-36.313z" fill="#fff8e9"/><path d="M260.904 107.94a77.8 77.8 0 11-77.8-77.806 77.805 77.805 0 0177.8 77.806zm-77.8-20.417a20.417 20.417 0 1020.417 20.417 20.417 20.417 0 00-20.422-20.417z" fill="none" stroke="#3e4147" stroke-linecap="round" stroke-linejoin="round" stroke-width="1.837"/></svg>
